<svg width="113" height="24" viewBox="0 0 113 24" fill="none" xmlns="http://www.w3.org/2000/svg">
<path d="M12.3785 10.8105L6.56016 8.24414V7.40625L12.3785 4.5V5.90625L8.3707 7.76367L12.3785 9.41016V10.8105ZM14.2298 3.43359H16.8959C18.0365 3.43359 18.8998 3.59375 19.4857 3.91406C20.0716 4.23438 20.3646 4.79688 20.3646 5.60156C20.3646 5.92578 20.3119 6.21875 20.2064 6.48047C20.1048 6.74219 19.9564 6.95703 19.7611 7.125C19.5658 7.29297 19.3275 7.40234 19.0462 7.45312V7.51172C19.3314 7.57031 19.5892 7.67188 19.8197 7.81641C20.0502 7.95703 20.2337 8.16406 20.3705 8.4375C20.5111 8.70703 20.5814 9.06641 20.5814 9.51562C20.5814 10.0352 20.4545 10.4805 20.2005 10.8516C19.9466 11.2227 19.5834 11.5078 19.1107 11.707C18.642 11.9023 18.0834 12 17.4349 12H14.2298V3.43359ZM16.0462 6.82617H17.1009C17.6283 6.82617 17.9935 6.74414 18.1966 6.58008C18.3998 6.41211 18.5013 6.16602 18.5013 5.8418C18.5013 5.51367 18.3802 5.2793 18.138 5.13867C17.8998 4.99414 17.5209 4.92188 17.0013 4.92188H16.0462V6.82617ZM16.0462 8.26758V10.5H17.2298C17.7767 10.5 18.1576 10.3945 18.3724 10.1836C18.5873 9.97266 18.6947 9.68945 18.6947 9.33398C18.6947 9.12305 18.6478 8.9375 18.5541 8.77734C18.4603 8.61719 18.3021 8.49219 18.0795 8.40234C17.8607 8.3125 17.558 8.26758 17.1712 8.26758H16.0462ZM28.3448 8.71289C28.3448 9.25977 28.2706 9.74414 28.1222 10.166C27.9777 10.5879 27.7648 10.9453 27.4835 11.2383C27.2062 11.5273 26.8702 11.7461 26.4757 11.8945C26.0851 12.043 25.6437 12.1172 25.1515 12.1172C24.6905 12.1172 24.2667 12.043 23.88 11.8945C23.4972 11.7461 23.1632 11.5273 22.878 11.2383C22.5968 10.9453 22.378 10.5879 22.2218 10.166C22.0695 9.74414 21.9933 9.25977 21.9933 8.71289C21.9933 7.98633 22.1222 7.37109 22.38 6.86719C22.6378 6.36328 23.005 5.98047 23.4816 5.71875C23.9581 5.45703 24.5265 5.32617 25.1866 5.32617C25.7999 5.32617 26.3429 5.45703 26.8155 5.71875C27.2921 5.98047 27.6652 6.36328 27.9347 6.86719C28.2081 7.37109 28.3448 7.98633 28.3448 8.71289ZM23.8155 8.71289C23.8155 9.14258 23.8624 9.50391 23.9562 9.79688C24.0499 10.0898 24.1964 10.3105 24.3956 10.459C24.5948 10.6074 24.8546 10.6816 25.1749 10.6816C25.4913 10.6816 25.7472 10.6074 25.9425 10.459C26.1417 10.3105 26.2862 10.0898 26.3761 9.79688C26.4698 9.50391 26.5167 9.14258 26.5167 8.71289C26.5167 8.2793 26.4698 7.91992 26.3761 7.63477C26.2862 7.3457 26.1417 7.12891 25.9425 6.98438C25.7433 6.83984 25.4835 6.76758 25.1632 6.76758C24.6905 6.76758 24.3468 6.92969 24.132 7.25391C23.921 7.57812 23.8155 8.06445 23.8155 8.71289ZM31.8485 12H30.0614V2.88281H31.8485V12ZM36.653 5.31445C37.5319 5.31445 38.2057 5.50586 38.6745 5.88867C39.1432 6.27148 39.3776 6.85352 39.3776 7.63477V12H38.1295L37.7838 11.1094H37.737C37.5495 11.3438 37.358 11.5352 37.1627 11.6836C36.9674 11.832 36.7428 11.9414 36.4889 12.0117C36.235 12.082 35.9264 12.1172 35.5631 12.1172C35.1764 12.1172 34.8288 12.043 34.5202 11.8945C34.2155 11.7461 33.9752 11.5195 33.7995 11.2148C33.6237 10.9062 33.5358 10.5156 33.5358 10.043C33.5358 9.34766 33.7799 8.83594 34.2682 8.50781C34.7565 8.17578 35.4889 7.99219 36.4655 7.95703L37.6022 7.92188V7.63477C37.6022 7.29102 37.5123 7.03906 37.3327 6.87891C37.153 6.71875 36.903 6.63867 36.5827 6.63867C36.2663 6.63867 35.9557 6.68359 35.651 6.77344C35.3463 6.86328 35.0416 6.97656 34.737 7.11328L34.1452 5.90625C34.4928 5.72266 34.8815 5.57812 35.3112 5.47266C35.7448 5.36719 36.192 5.31445 36.653 5.31445ZM37.6022 8.96484L36.9108 8.98828C36.3327 9.00391 35.9303 9.10742 35.7038 9.29883C35.4811 9.49023 35.3698 9.74219 35.3698 10.0547C35.3698 10.3281 35.4498 10.5234 35.61 10.6406C35.7702 10.7539 35.9791 10.8105 36.237 10.8105C36.6198 10.8105 36.942 10.6973 37.2038 10.4707C37.4694 10.2441 37.6022 9.92188 37.6022 9.50391V8.96484ZM34.2213 4.74023C34.2448 4.42773 34.3014 4.1582 34.3913 3.93164C34.4811 3.70117 34.5983 3.51367 34.7428 3.36914C34.8873 3.2207 35.0495 3.11133 35.2291 3.04102C35.4127 2.9668 35.608 2.92969 35.8151 2.92969C35.9752 2.92969 36.1315 2.96094 36.2838 3.02344C36.4401 3.08203 36.5924 3.15234 36.7409 3.23438C36.8932 3.31641 37.0416 3.38867 37.1862 3.45117C37.3346 3.50977 37.4791 3.53906 37.6198 3.53906C37.737 3.53906 37.8502 3.48828 37.9596 3.38672C38.0729 3.28125 38.1549 3.125 38.2057 2.91797H39.0788C39.0319 3.53516 38.8561 3.99219 38.5514 4.28906C38.2467 4.58203 37.8913 4.72852 37.485 4.72852C37.3248 4.72852 37.1666 4.69727 37.0104 4.63477C36.858 4.57227 36.7057 4.50195 36.5534 4.42383C36.4049 4.3418 36.2584 4.26953 36.1139 4.20703C35.9694 4.14453 35.8268 4.11328 35.6862 4.11328C35.5651 4.11328 35.4479 4.16602 35.3346 4.27148C35.2252 4.37305 35.1452 4.5293 35.0944 4.74023H34.2213ZM47.4164 8.71289C47.4164 9.25977 47.3422 9.74414 47.1937 10.166C47.0492 10.5879 46.8363 10.9453 46.5551 11.2383C46.2777 11.5273 45.9418 11.7461 45.5473 11.8945C45.1566 12.043 44.7152 12.1172 44.223 12.1172C43.7621 12.1172 43.3383 12.043 42.9516 11.8945C42.5687 11.7461 42.2348 11.5273 41.9496 11.2383C41.6684 10.9453 41.4496 10.5879 41.2934 10.166C41.141 9.74414 41.0648 9.25977 41.0648 8.71289C41.0648 7.98633 41.1937 7.37109 41.4516 6.86719C41.7094 6.36328 42.0766 5.98047 42.5531 5.71875C43.0297 5.45703 43.598 5.32617 44.2582 5.32617C44.8715 5.32617 45.4145 5.45703 45.8871 5.71875C46.3637 5.98047 46.7367 6.36328 47.0062 6.86719C47.2797 7.37109 47.4164 7.98633 47.4164 8.71289ZM42.8871 8.71289C42.8871 9.14258 42.934 9.50391 43.0277 9.79688C43.1215 10.0898 43.268 10.3105 43.4672 10.459C43.6664 10.6074 43.9262 10.6816 44.2465 10.6816C44.5629 10.6816 44.8187 10.6074 45.0141 10.459C45.2133 10.3105 45.3578 10.0898 45.4477 9.79688C45.5414 9.50391 45.5883 9.14258 45.5883 8.71289C45.5883 8.2793 45.5414 7.91992 45.4477 7.63477C45.3578 7.3457 45.2133 7.12891 45.0141 6.98438C44.8148 6.83984 44.5551 6.76758 44.2348 6.76758C43.7621 6.76758 43.4184 6.92969 43.2035 7.25391C42.9926 7.57812 42.8871 8.06445 42.8871 8.71289Z" fill="#F7DD43"/>
<path d="M69.5703 21.9979C67.6321 21.9979 65.5959 21.5923 64 20.6156V3.38234C65.5709 2.4332 67.6071 2.00003 69.5703 2.00003C71.5334 2.00003 73.5216 2.40559 75.0906 3.38234V9.9945H71.1393V5.49509C70.674 5.27851 70.1087 5.19782 69.5453 5.19782C68.9819 5.19782 68.4647 5.27851 67.9744 5.49509V18.5028C68.4397 18.7194 68.98 18.8001 69.5453 18.8001C70.1106 18.8001 70.649 18.7194 71.1393 18.5028V14.0055H75.0906V20.6177C73.5447 21.5668 71.5084 21.9724 69.5703 22V21.9979Z" fill="#F7DD43"/>
<path d="M82.501 21.9978C80.4148 21.9978 78.4036 21.5095 76.8077 20.5072V3.463C78.3786 2.48837 80.3917 2 82.501 2C84.6103 2 86.5735 2.46077 88.1444 3.463V20.5072C86.5985 21.5095 84.5622 21.9702 82.501 21.9978ZM84.195 5.55026C83.7297 5.33368 83.1644 5.22539 82.4779 5.22539C81.7915 5.22539 81.2512 5.33368 80.784 5.55026V18.4221C81.2493 18.6663 81.8146 18.7746 82.4779 18.7746C83.1413 18.7746 83.7047 18.6663 84.195 18.4221V5.55026Z" fill="#F7DD43"/>
<path d="M95.0394 14.6807H93.9838V21.7537H89.9844V2.2442H95.0394C97.4447 2.2442 99.2598 2.78566 100.683 3.89618V13.0288C99.2848 14.1138 97.4428 14.6807 95.0394 14.6807ZM96.7083 5.60336C96.3411 5.30609 95.8488 5.1702 95.0144 5.1702H93.9338V11.7547H95.0144C95.8239 11.7547 96.3142 11.6189 96.7083 11.3492V5.60336Z" fill="#F7DD43"/>
<path d="M109.049 21.7537V14.6807H106.105V21.7537H102.131V3.43539C103.578 2.48625 105.615 2 107.578 2C109.541 2 111.552 2.48837 113 3.43539V21.7537H109.049ZM109.049 5.38677C108.631 5.17018 108.116 5.06189 107.576 5.06189C107.036 5.06189 106.52 5.17018 106.103 5.38677V11.5912H109.047V5.38677H109.049Z" fill="#F7DD43"/>
<path d="M20.13 22V20.74L23.37 17.68C23.626 17.448 23.814 17.24 23.934 17.056C24.054 16.872 24.134 16.704 24.174 16.552C24.222 16.4 24.246 16.26 24.246 16.132C24.246 15.796 24.13 15.54 23.898 15.364C23.674 15.18 23.342 15.088 22.902 15.088C22.55 15.088 22.222 15.156 21.918 15.292C21.622 15.428 21.37 15.64 21.162 15.928L19.746 15.016C20.066 14.536 20.514 14.156 21.09 13.876C21.666 13.596 22.33 13.456 23.082 13.456C23.706 13.456 24.25 13.56 24.714 13.768C25.186 13.968 25.55 14.252 25.806 14.62C26.07 14.988 26.202 15.428 26.202 15.94C26.202 16.212 26.166 16.484 26.094 16.756C26.03 17.02 25.894 17.3 25.686 17.596C25.486 17.892 25.19 18.224 24.798 18.592L22.11 21.124L21.738 20.416H26.478V22H20.13ZM31.1201 22.144C30.4321 22.144 29.8161 21.976 29.2721 21.64C28.7281 21.296 28.3001 20.8 27.9881 20.152C27.6761 19.504 27.5201 18.72 27.5201 17.8C27.5201 16.88 27.6761 16.096 27.9881 15.448C28.3001 14.8 28.7281 14.308 29.2721 13.972C29.8161 13.628 30.4321 13.456 31.1201 13.456C31.8161 13.456 32.4321 13.628 32.9681 13.972C33.5121 14.308 33.9401 14.8 34.2521 15.448C34.5641 16.096 34.7201 16.88 34.7201 17.8C34.7201 18.72 34.5641 19.504 34.2521 20.152C33.9401 20.8 33.5121 21.296 32.9681 21.64C32.4321 21.976 31.8161 22.144 31.1201 22.144ZM31.1201 20.5C31.4481 20.5 31.7321 20.408 31.9721 20.224C32.2201 20.04 32.4121 19.748 32.5481 19.348C32.6921 18.948 32.7641 18.432 32.7641 17.8C32.7641 17.168 32.6921 16.652 32.5481 16.252C32.4121 15.852 32.2201 15.56 31.9721 15.376C31.7321 15.192 31.4481 15.1 31.1201 15.1C30.8001 15.1 30.5161 15.192 30.2681 15.376C30.0281 15.56 29.8361 15.852 29.6921 16.252C29.5561 16.652 29.4881 17.168 29.4881 17.8C29.4881 18.432 29.5561 18.948 29.6921 19.348C29.8361 19.748 30.0281 20.04 30.2681 20.224C30.5161 20.408 30.8001 20.5 31.1201 20.5ZM35.7858 22V20.74L39.0258 17.68C39.2818 17.448 39.4698 17.24 39.5898 17.056C39.7098 16.872 39.7898 16.704 39.8298 16.552C39.8778 16.4 39.9018 16.26 39.9018 16.132C39.9018 15.796 39.7858 15.54 39.5538 15.364C39.3298 15.18 38.9978 15.088 38.5578 15.088C38.2058 15.088 37.8778 15.156 37.5738 15.292C37.2778 15.428 37.0258 15.64 36.8178 15.928L35.4018 15.016C35.7218 14.536 36.1698 14.156 36.7458 13.876C37.3218 13.596 37.9858 13.456 38.7378 13.456C39.3618 13.456 39.9058 13.56 40.3698 13.768C40.8418 13.968 41.2058 14.252 41.4618 14.62C41.7258 14.988 41.8578 15.428 41.8578 15.94C41.8578 16.212 41.8218 16.484 41.7498 16.756C41.6858 17.02 41.5498 17.3 41.3418 17.596C41.1418 17.892 40.8458 18.224 40.4538 18.592L37.7658 21.124L37.3938 20.416H42.1338V22H35.7858ZM43.1039 22V20.74L46.3439 17.68C46.5999 17.448 46.7879 17.24 46.9079 17.056C47.0279 16.872 47.1079 16.704 47.1479 16.552C47.1959 16.4 47.2199 16.26 47.2199 16.132C47.2199 15.796 47.1039 15.54 46.8719 15.364C46.6479 15.18 46.3159 15.088 45.8759 15.088C45.5239 15.088 45.1959 15.156 44.8919 15.292C44.5959 15.428 44.3439 15.64 44.1359 15.928L42.7199 15.016C43.0399 14.536 43.4879 14.156 44.0639 13.876C44.6399 13.596 45.3039 13.456 46.0559 13.456C46.6799 13.456 47.2239 13.56 47.6879 13.768C48.1599 13.968 48.5239 14.252 48.7799 14.62C49.0439 14.988 49.1759 15.428 49.1759 15.94C49.1759 16.212 49.1399 16.484 49.0679 16.756C49.0039 17.02 48.8679 17.3 48.6599 17.596C48.4599 17.892 48.1639 18.224 47.7719 18.592L45.0839 21.124L44.7119 20.416H49.4519V22H43.1039ZM49.7472 23.2L53.7072 11.896H55.3752L51.4152 23.2H49.7472ZM55.8264 20.752V19.252L60.9744 17.38V18.22L55.8264 16.348V14.848L61.5384 17.02V18.58L55.8264 20.752Z" fill="#F7DD43"/>
</svg>
